<svg viewBox="0 0 34 34" xmlns="http://www.w3.org/2000/svg" xmlns:xlink="http://www.w3.org/1999/xlink" width="34.000000" height="34.000000" fill="none">
	<rect id="Search" width="34.000000" height="34.000000" x="0.000000" y="0.000000" fill="rgb(255,255,255)" fill-opacity="0" />
	<path id="Vector" d="M0 0L34 0L34 34L0 34L0 0Z" fill-rule="nonzero" />
	<path id="Vector" d="M21.9583 19.8333L20.8392 19.8333L20.4425 19.4508C21.8308 17.8358 22.6667 15.7392 22.6667 13.4583C22.6667 8.3725 18.5442 4.25 13.4583 4.25C8.3725 4.25 4.25 8.3725 4.25 13.4583C4.25 18.5442 8.3725 22.6667 13.4583 22.6667C15.7392 22.6667 17.8358 21.8308 19.4508 20.4425L19.8333 20.8392L19.8333 21.9583L26.9167 29.0275L29.0275 26.9167L21.9583 19.8333ZM13.4583 19.8333C9.93083 19.8333 7.08333 16.9858 7.08333 13.4583C7.08333 9.93083 9.93083 7.08333 13.4583 7.08333C16.9858 7.08333 19.8333 9.93083 19.8333 13.4583C19.8333 16.9858 16.9858 19.8333 13.4583 19.8333Z" fill="rgb(255,255,255)" fill-rule="nonzero" />
</svg>
